<?xml version="1.0" encoding="UTF-8" standalone="no"?>
<svg
   xmlns:dc="http://purl.org/dc/elements/1.1/"
   xmlns:cc="http://creativecommons.org/ns#"
   xmlns:rdf="http://www.w3.org/1999/02/22-rdf-syntax-ns#"
   xmlns:svg="http://www.w3.org/2000/svg"
   xmlns="http://www.w3.org/2000/svg"
   xmlns:sodipodi="http://sodipodi.sourceforge.net/DTD/sodipodi-0.dtd"
   xmlns:inkscape="http://www.inkscape.org/namespaces/inkscape"
   viewBox="0 0 50 50"
   version="1.1"
   id="svg3785"
   sodipodi:docname="C#.svg"
   inkscape:version="0.92.4 (5da689c313, 2019-01-14)">
  <metadata
     id="metadata3791">
    <rdf:RDF>
      <cc:Work
         rdf:about="">
        <dc:format>image/svg+xml</dc:format>
        <dc:type
           rdf:resource="http://purl.org/dc/dcmitype/StillImage" />
        <dc:title></dc:title>
      </cc:Work>
    </rdf:RDF>
  </metadata>
  <defs
     id="defs3789" />
  <sodipodi:namedview
     pagecolor="#ffffff"
     bordercolor="#666666"
     borderopacity="1"
     objecttolerance="10"
     gridtolerance="10"
     guidetolerance="10"
     inkscape:pageopacity="0"
     inkscape:pageshadow="2"
     inkscape:window-width="1920"
     inkscape:window-height="1017"
     id="namedview3787"
     showgrid="false"
     inkscape:snap-grids="true"
     inkscape:zoom="13.350176"
     inkscape:cx="52.119453"
     inkscape:cy="31.428287"
     inkscape:window-x="1912"
     inkscape:window-y="-8"
     inkscape:window-maximized="1"
     inkscape:current-layer="svg3785" />
  <path
     d="M 24.625 2.078125 C 23.909625 2.078125 23.195141 2.2567344 22.556641 2.6152344 L 5.7148438 12.078125 C 4.4268437 12.802125 3.625 14.155328 3.625 15.611328 L 3.625 34.539062 C 3.625 35.994062 4.4258437 37.348266 5.7148438 38.072266 L 22.556641 47.535156 C 23.194641 47.893156 23.91 48.074219 24.625 48.074219 C 25.34 48.074219 26.057312 47.894156 26.695312 47.535156 L 43.537109 38.072266 C 44.826109 37.346266 45.625 35.992109 45.625 34.537109 L 45.625 15.611328 C 45.625 14.155328 44.825109 12.802125 43.537109 12.078125 L 26.695312 2.6152344 C 26.057313 2.2567344 25.340375 2.078125 24.625 2.078125 z M 24.625 13.074219 C 28.405 13.074219 31.900969 14.830406 34.167969 17.816406 L 29.787109 20.351562 C 28.469109 18.911562 26.598 18.074219 24.625 18.074219 C 20.765 18.074219 17.625 21.214219 17.625 25.074219 C 17.625 28.934219 20.765 32.074219 24.625 32.074219 C 26.598 32.074219 28.469109 31.238828 29.787109 29.798828 L 34.167969 32.333984 C 31.900969 35.319984 28.405 37.074219 24.625 37.074219 C 18.008 37.074219 12.625 31.691219 12.625 25.074219 C 12.625 18.457219 18.008 13.074219 24.625 13.074219 z M 35.613281 20.302734 L 36.369141 20.302734 L 35.753906 22.775391 L 37.335938 22.775391 L 37.951172 20.302734 L 38.707031 20.302734 L 38.091797 22.775391 L 39.837891 22.775391 L 39.837891 23.566406 L 37.886719 23.566406 L 37.347656 25.769531 L 39.152344 25.769531 L 39.152344 26.560547 L 37.142578 26.560547 L 36.533203 29.027344 L 35.777344 29.027344 L 36.386719 26.560547 L 34.804688 26.560547 L 34.195312 29.027344 L 33.439453 29.027344 L 34.048828 26.560547 L 32.302734 26.560547 L 32.302734 25.769531 L 34.253906 25.769531 L 34.792969 23.566406 L 32.988281 23.566406 L 32.988281 22.775391 L 34.998047 22.775391 L 35.613281 20.302734 z M 35.542969 23.554688 L 34.992188 25.78125 L 36.597656 25.78125 L 37.148438 23.554688 L 35.542969 23.554688 z "
     id="path3783" />
  <ellipse
     style="fill:none"
     id="path4735"
     cx="58.313839"
     cy="3.1841378"
     rx="3.5580056"
     ry="1.4232022" />
  <ellipse
     style="fill:none"
     id="path4737"
     cx="52.658482"
     cy="1.1242399"
     rx="2.6216884"
     ry="0.26216882" />
</svg>
