<?xml version="1.0" encoding="UTF-8"?>
<!DOCTYPE svg PUBLIC "-//W3C//DTD SVG 1.1//EN" "http://www.w3.org/Graphics/SVG/1.1/DTD/svg11.dtd">
<!-- Creator: CorelDRAW X6 -->
<svg xmlns="http://www.w3.org/2000/svg" xml:space="preserve" width="4.5in" height="5.06944in" version="1.1" style="shape-rendering:geometricPrecision; text-rendering:geometricPrecision; image-rendering:optimizeQuality; fill-rule:evenodd; clip-rule:evenodd"
viewBox="0 0 4500 5069"
 xmlns:xlink="http://www.w3.org/1999/xlink">
 <defs>
  <style type="text/css">
   <![CDATA[
    .fil1 {fill:#000000;fill-rule:nonzero}
    .fil2 {fill:#000000;fill-rule:nonzero}
    .fil0 {fill:#000000;fill-rule:nonzero}
    .fil3 {fill:#FEFEFE;fill-rule:nonzero}
   ]]>
  </style>
 </defs>
 <g id="Layer_x0020_1">
  <metadata id="CorelCorpID_0Corel-Layer"/>
  <path class="fil0" d="M4510 1490c0,-85 -18,-161 -55,-225 -36,-64 -90,-117 -163,-159 -600,-346 -1202,-691 -1802,-1038 -162,-93 -319,-90 -479,5 -239,141 -1436,827 -1792,1033 -147,85 -218,215 -218,384 0,696 0,1393 0,2089 0,83 17,157 53,221 36,65 91,120 166,163 357,207 1553,892 1792,1033 161,95 318,98 479,5 600,-347 1201,-692 1802,-1038 74,-43 129,-98 166,-163 35,-64 53,-138 53,-221l0 -1 0 -3 0 -5 0 -7 0 -9 0 -10 0 -12 0 -14 0 -16 0 -17 0 -19 0 -20 0 -22c0,-382 0,-1379 0,-1934z"/>
  <path class="fil1" d="M2262 2528l-2209 1272c36,65 91,120 166,163 357,207 1553,892 1792,1033 161,95 318,98 479,5 600,-347 1201,-692 1802,-1038 74,-43 129,-98 166,-163l-2196 -1272z"/>
  <path class="fil1" d="M1608 2905c129,224 370,376 648,376 279,0 522,-153 650,-380l-643 -373 -654 377z"/>
  <path class="fil2" d="M4510 1490c0,-85 -18,-161 -55,-225l-2193 1263 2196 1272c35,-64 53,-138 53,-221 0,0 0,-1392 0,-2089z"/>
  <path class="fil3" d="M2905 2900c-128,227 -371,380 -650,380 -277,0 -519,-151 -648,-376 -62,-109 -98,-235 -98,-370 0,-412 334,-746 746,-746 275,0 516,150 645,372l652 -375c-259,-447 -743,-748 -1297,-748 -827,0 -1498,671 -1498,1498 0,271 72,526 198,745 258,450 744,752 1300,752 557,0 1043,-304 1301,-755l-651 -377z"/>
  <polygon class="fil3" points="3581,2898 3729,2898 3729,2181 3581,2181 "/>
  <polygon class="fil3" points="3910,2898 4058,2898 4058,2181 3910,2181 "/>
  <polygon class="fil3" points="3460,2449 4178,2449 4178,2301 3460,2301 "/>
  <polygon class="fil3" points="3460,2778 4178,2778 4178,2630 3460,2630 "/>
 </g>
</svg>
