<?xml version="1.0" standalone="no"?>
<!DOCTYPE svg PUBLIC "-//W3C//DTD SVG 20010904//EN"
 "http://www.w3.org/TR/2001/REC-SVG-20010904/DTD/svg10.dtd">
<svg version="1.0" xmlns="http://www.w3.org/2000/svg"
 width="1024.000000pt" height="1024.000000pt" viewBox="0 0 1024.000000 1024.000000"
 preserveAspectRatio="xMidYMid meet">
<metadata>
Created by potrace 1.15, written by Peter Selinger 2001-2017
</metadata>
<g transform="translate(0.000000,1024.000000) scale(0.100000,-0.100000)"
fill="#000000" stroke="none">
<path d="M0 9010 c0 -1191 1 -1230 19 -1230 10 0 69 -24 132 -54 1244 -586
2583 -959 3894 -1085 411 -39 561 -46 1075 -46 514 0 664 7 1075 46 1264 121
2522 463 3744 1016 141 64 146 66 223 64 l78 -2 0 817 0 817 -37 -7 c-21 -3
-85 -9 -143 -12 -255 -15 -461 69 -553 227 -82 140 -73 376 22 607 l30 72
-4780 0 -4779 0 0 -1230z m8493 903 c102 -77 307 -290 373 -388 198 -291 264
-586 195 -866 -11 -41 -19 -64 -20 -51 -1 12 -11 32 -22 43 -19 19 -29 21 -86
16 -200 -19 -370 98 -490 338 -72 143 -107 297 -107 465 -1 145 12 192 80 311
24 42 44 82 44 90 0 8 -9 31 -19 52 -10 20 -17 37 -14 37 2 0 32 -21 66 -47z
m-2997 -310 c27 -27 44 -78 44 -132 0 -58 -11 -91 -47 -144 -29 -42 -140 -120
-160 -113 -7 3 -13 1 -13 -5 0 -6 -7 -9 -15 -5 -8 3 -15 1 -15 -4 0 -5 -19 -8
-42 -8 -24 0 -37 3 -29 6 11 4 11 6 0 13 -10 6 -6 9 14 9 15 0 27 4 27 9 0 5
-10 7 -22 4 -22 -4 -22 -4 -4 8 16 10 21 9 32 -5 11 -15 13 -15 27 -1 9 8 22
15 31 15 22 0 78 51 72 66 -3 7 7 34 21 59 23 41 25 54 20 110 -7 70 7 135 28
135 7 0 21 -8 31 -17z m2175 -358 c185 -49 174 -43 268 -140 169 -175 299
-358 397 -558 l57 -117 -27 -69 c-52 -132 -144 -261 -223 -311 l-44 -28 29 -7
c34 -7 61 -33 67 -63 4 -23 -12 -21 -50 5 -11 7 -32 13 -48 13 -15 0 -39 7
-52 16 -23 15 -48 15 -107 -1 -5 -2 -16 -3 -26 -4 -10 0 -37 -17 -60 -37 -45
-38 -56 -36 -19 4 l22 25 -30 -19 c-16 -10 -40 -29 -52 -41 -32 -33 -35 -28
-11 13 13 23 37 43 62 55 l40 18 -44 0 c-25 -1 -65 -7 -89 -15 -24 -8 -45 -13
-46 -12 -2 2 1 13 6 26 5 14 17 22 31 22 13 0 47 9 76 20 29 11 71 20 95 21
l42 1 -30 13 c-69 32 -150 9 -232 -66 -24 -22 -51 -39 -62 -39 -11 0 -23 -5
-26 -10 -4 -6 -10 -8 -14 -5 -5 2 -23 0 -42 -6 -61 -18 -116 -19 -146 -4 -76
40 -238 -4 -325 -87 -23 -22 -47 -37 -55 -34 -8 3 -40 -3 -71 -14 -31 -11 -66
-20 -79 -20 -20 0 -74 -16 -141 -41 l-22 -9 20 -20 c21 -21 27 -50 11 -50 -5
0 -19 16 -31 35 -12 19 -25 33 -29 31 -4 -3 -13 -1 -21 5 -13 7 -12 9 2 9 13
0 16 7 13 31 -3 18 -7 34 -11 38 -4 3 -4 -5 -1 -19 6 -24 5 -23 -18 5 -13 17
-24 36 -25 43 0 7 -4 11 -9 7 -5 -3 -12 -1 -15 4 -16 25 -175 30 -243 7 -28
-9 -68 -32 -91 -51 -43 -37 -123 -58 -136 -36 -4 6 -23 11 -42 11 -22 0 -33
-4 -29 -11 9 -14 -26 -8 -42 8 -19 17 -16 21 12 15 24 -4 25 -3 14 22 -13 29
-39 33 -86 15 -15 -6 -53 -12 -83 -14 -54 -3 -56 -2 -55 24 0 22 -4 26 -25 23
-14 -1 -52 -4 -85 -7 -33 -2 -74 -6 -91 -10 -21 -5 -34 -2 -43 9 -10 12 -8 17
18 31 17 8 31 13 31 10 0 -4 16 10 35 31 19 20 35 32 35 27 0 -6 18 -7 50 -2
29 4 72 3 103 -2 101 -20 227 -22 297 -4 36 9 84 16 107 15 24 0 79 9 124 21
64 18 77 24 60 31 -33 12 -24 21 15 15 39 -7 67 0 58 14 -3 5 -1 9 5 9 5 0 12
-8 16 -19 4 -13 13 -17 33 -14 l27 4 -30 -17 c-16 -9 -42 -28 -57 -42 -106
-99 130 -123 330 -33 47 21 88 31 137 34 40 2 85 12 105 22 30 16 33 16 21 2
-40 -49 34 -62 117 -21 62 31 78 53 57 80 -13 18 -14 17 -16 -16 -2 -31 -3
-32 -6 -7 -5 31 -4 31 -38 15 -34 -15 -32 -38 3 -38 24 -1 25 -2 9 -11 -13 -7
-22 -7 -31 0 -7 6 -16 8 -20 4 -4 -4 -4 1 0 11 6 15 4 18 -7 12 -8 -4 -3 2 10
13 25 23 21 27 -10 10 -19 -10 -20 -9 -9 11 10 19 9 27 -9 51 l-21 28 49 36
c90 66 136 164 111 239 -23 70 -140 146 -226 146 -20 0 -34 17 -34 42 0 6 7 7
16 4 14 -5 15 -4 4 9 -7 8 -16 12 -21 9 -5 -3 -9 -1 -9 5 0 23 -85 54 -165 60
l-80 6 84 61 c46 34 140 97 209 140 154 96 232 169 255 239 10 28 27 63 40 78
49 61 181 74 338 32z m-3259 -442 c31 -43 46 -110 34 -157 -3 -13 -18 -39 -32
-56 l-27 -31 -17 51 c-10 28 -30 64 -46 81 -23 24 -25 29 -10 29 10 0 20 -9
23 -20 9 -32 23 -23 23 15 0 21 8 43 19 54 18 18 18 19 -2 51 -30 47 -1 33 35
-17z m5283 -417 c23 -23 25 -24 67 -9 62 21 131 27 156 14 24 -13 30 -55 10
-67 -6 -4 -8 -3 -5 4 4 5 4 18 1 27 -6 14 -15 16 -58 11 -28 -4 -64 -6 -80 -6
-63 1 -162 -63 -157 -102 0 -4 -8 -12 -19 -18 -18 -10 -19 -8 -10 14 6 16 6
27 0 31 -6 4 -10 0 -10 -7 -1 -17 -35 -58 -50 -58 -6 0 -8 5 -5 10 3 6 2 10
-4 10 -22 0 -1 34 35 56 21 13 36 24 32 24 -12 0 -113 -41 -118 -49 -7 -9 -63
-35 -72 -33 -4 1 -24 -9 -44 -23 -46 -31 -54 -31 -54 0 0 56 122 147 241 179
81 22 116 20 144 -8z m-3502 -180 c3 -8 -2 -25 -13 -38 l-18 -24 44 -18 c24
-10 44 -21 44 -25 0 -12 -95 -30 -190 -36 -47 -3 -89 -10 -94 -15 -15 -15 -22
-12 -34 15 -9 19 -9 23 3 19 7 -3 29 2 48 11 19 9 38 15 43 14 23 -4 42 3 63
22 12 12 25 19 28 16 6 -6 43 24 43 36 0 6 21 35 26 37 1 0 4 -6 7 -14z m3332
-136 c-4 -6 -2 -17 4 -24 15 -18 -2 -31 -59 -46 -25 -7 -89 -32 -143 -57 -53
-24 -103 -42 -110 -40 -7 3 -5 6 5 6 11 1 16 8 13 20 -3 14 1 18 12 14 9 -3
25 5 39 21 22 23 41 31 66 27 4 0 5 6 2 14 -4 8 -2 15 2 16 19 1 51 10 94 24
l45 15 -55 -6 c-101 -11 -180 -49 -163 -78 4 -5 1 -6 -4 -3 -6 4 -24 0 -39 -8
-16 -8 -24 -15 -19 -15 11 0 -16 -20 -27 -20 -5 0 -8 4 -8 10 0 18 123 91 194
115 73 25 163 34 151 15z m-2982 -250 c12 0 35 -9 52 -20 26 -17 27 -20 10
-26 -16 -7 -17 -8 -2 -13 23 -9 -124 -4 -215 6 -43 5 -81 13 -85 17 -4 5 2 6
15 3 12 -3 22 -1 22 5 0 5 5 6 10 3 6 -3 10 2 10 12 0 15 2 16 10 3 5 -8 10
-10 10 -5 0 6 21 11 47 12 30 0 51 6 57 16 8 13 12 13 23 1 8 -8 24 -14 36
-14z m2141 -76 c9 -3 16 -15 16 -26 0 -10 -4 -16 -10 -13 -6 3 -7 -1 -4 -9 3
-9 14 -16 23 -17 18 0 -21 -18 -51 -22 -9 -2 -21 -6 -24 -10 -4 -4 -17 -4 -29
-1 -13 3 -56 -4 -96 -17 -41 -12 -80 -22 -86 -22 -7 0 -15 -8 -18 -18 -5 -15
-11 -16 -31 -9 -15 6 -24 6 -24 0 0 -6 -5 -10 -10 -10 -6 0 -3 11 7 24 10 13
20 20 21 15 6 -14 22 -10 22 5 0 8 13 17 29 21 16 3 32 13 35 21 3 8 13 14 23
14 10 0 31 7 46 15 15 8 43 17 62 21 59 11 41 27 -22 21 -38 -3 -77 -16 -113
-36 -59 -33 -70 -36 -70 -21 0 11 79 47 145 65 53 15 133 19 159 9z m207 -63
c19 -16 22 -22 12 -32 -21 -21 -15 -29 13 -19 41 16 40 12 -7 -19 -24 -16 -47
-27 -51 -25 -4 3 -8 -2 -8 -12 0 -15 2 -15 23 -1 12 8 36 17 54 21 17 4 34 14
37 22 3 8 16 14 28 15 13 0 32 5 43 10 14 6 4 7 -30 3 -39 -4 -46 -3 -33 6 10
6 42 13 70 16 38 3 47 2 33 -5 -17 -8 -16 -10 13 -10 34 -1 39 -9 20 -30 -11
-11 -10 -13 2 -9 97 33 124 39 157 36 33 -3 28 -5 -37 -18 -41 -7 -80 -21 -87
-29 -7 -9 -13 -11 -13 -5 0 11 -50 7 -60 -5 -7 -9 -58 -41 -65 -41 -14 0 -2
19 16 25 11 4 18 9 15 12 -9 9 -105 -30 -99 -40 3 -6 2 -7 -4 -4 -12 8 -83
-13 -83 -25 0 -11 -57 -10 -65 2 -3 5 -12 7 -20 3 -23 -8 -18 15 6 27 15 8 24
8 34 0 9 -7 15 -8 20 0 3 5 1 10 -4 10 -6 0 -11 5 -11 12 0 6 3 9 6 5 7 -7 74
58 74 72 0 10 -37 24 -56 20 -30 -5 -107 2 -98 10 25 25 126 26 155 2z m-3985
-226 c35 -36 62 -65 60 -65 -2 0 -17 7 -32 15 -16 8 -39 15 -51 15 -12 0 -48
7 -80 15 -31 8 -81 15 -110 15 -28 0 -54 4 -57 8 -2 4 11 6 30 4 21 -3 34 0
34 7 0 6 -7 11 -17 11 -9 0 -13 3 -9 7 4 4 -8 13 -26 19 -29 11 -20 13 81 13
l114 1 63 -65z m1712 -8 c24 -22 31 -80 10 -93 -6 -4 -8 -3 -5 3 7 12 -40 40
-50 30 -3 -4 1 -7 10 -7 21 0 22 -19 2 -26 -12 -5 -13 -10 -4 -20 10 -12 -9
-14 -118 -14 -71 0 -133 3 -137 8 -9 8 -14 9 -58 11 -49 2 -28 10 50 20 54 7
79 16 103 35 23 19 37 24 57 20 19 -4 23 -3 14 4 -11 7 -11 10 2 15 9 4 16 2
16 -4 0 -6 4 -8 9 -4 5 3 12 -3 14 -12 4 -16 5 -16 6 -1 0 9 -19 29 -45 46
l-46 31 44 3 c46 3 90 -12 126 -45z m1427 -97 c8 -7 15 -15 15 -19 0 -8 -62
-46 -71 -44 -3 1 -23 -4 -45 -12 -21 -8 -33 -14 -26 -15 6 0 12 -4 12 -10 0
-13 -70 -13 -90 0 -12 8 -9 10 11 10 15 0 37 9 50 19 l24 19 -30 -5 -30 -4 25
15 c14 8 34 20 45 26 20 10 -142 8 -245 -5 -40 -4 -42 -4 -15 5 17 6 57 17 90
25 73 17 257 14 280 -5z m-570 -319 c-3 -5 6 -11 20 -13 35 -4 32 -19 -7 -41
-33 -18 -33 -18 72 -11 103 7 130 2 60 -10 -77 -13 -185 -34 -190 -36 -3 -1
-13 -1 -24 0 -12 1 -16 -3 -11 -10 6 -9 2 -9 -14 -1 -17 10 -22 9 -27 -4 -3
-8 -10 -15 -16 -15 -5 0 -7 3 -5 8 3 4 -5 7 -18 7 -13 0 -21 -3 -18 -7 2 -5 0
-8 -6 -8 -5 0 -12 6 -14 13 -3 6 -6 1 -6 -12 -1 -13 -4 -22 -7 -19 -3 4 -19 2
-35 -2 -16 -5 -29 -5 -29 -1 0 5 15 12 33 16 28 6 30 8 12 15 -28 12 -37 12
-29 -1 4 -8 0 -7 -15 1 -17 8 -35 8 -82 -4 -76 -20 -95 -20 -103 -1 -4 10 5
17 27 24 29 8 30 9 7 11 -22 2 -20 3 10 12 19 5 50 10 68 9 21 0 30 4 26 11
-4 7 -3 8 4 4 12 -7 94 9 128 26 21 10 52 14 119 19 22 1 25 3 10 7 l-20 5 20
8 c28 11 67 11 60 0z"/>
<path d="M10015 6899 c-60 -5 -319 -25 -575 -44 -1275 -97 -2352 -195 -3340
-305 -562 -63 -898 -104 -905 -111 -3 -3 2 -22 10 -42 40 -97 -1 -203 -97
-251 -29 -14 -45 -26 -37 -26 8 0 34 -12 57 -27 l41 -27 -34 -23 c-33 -23 -43
-42 -28 -56 3 -4 20 3 37 16 44 32 82 47 119 46 32 -1 31 -1 -7 -10 -58 -14
-70 -26 -51 -55 8 -13 15 -37 15 -54 0 -32 6 -36 30 -20 11 7 11 10 2 10 -7 0
-10 5 -7 10 4 6 11 8 16 4 13 -8 59 23 59 39 0 7 10 17 23 22 12 6 23 20 25
33 4 24 17 29 28 10 4 -6 -5 -20 -21 -31 -37 -27 -103 -130 -111 -174 -4 -22
-11 -32 -19 -29 -13 5 -13 -5 -2 -34 3 -8 8 -50 10 -92 l5 -77 -31 -7 c-55
-11 -103 -41 -146 -90 -47 -54 -52 -50 -16 12 16 28 43 53 73 71 26 14 48 27
50 28 1 1 -11 17 -28 35 -17 18 -33 44 -36 59 -3 14 -8 32 -10 39 -5 16 -60
12 -57 -5 7 -36 -163 -139 -175 -105 -5 15 -88 52 -118 52 -23 0 -23 -1 -9
-39 14 -41 21 -111 16 -176 -3 -36 -4 -38 -12 -15 -7 21 -8 20 -6 -12 2 -21 0
-38 -4 -38 -4 0 -10 -7 -13 -16 -4 -12 -2 -15 9 -10 19 7 15 -14 -5 -32 -13
-12 -13 -13 3 -8 10 3 23 6 28 6 6 0 8 4 4 9 -3 5 -1 12 4 15 4 3 8 -2 7 -12
0 -9 4 -18 9 -20 6 -2 17 -10 26 -18 9 -8 27 -17 39 -19 34 -7 79 -54 91 -96
14 -46 0 -75 -46 -95 -39 -16 -147 -19 -174 -4 -17 9 -36 60 -32 86 1 6 -13
14 -30 18 -46 9 -49 8 -49 -13 0 -27 -21 -38 -32 -17 -8 15 -11 15 -34 -3 -14
-11 -39 -23 -56 -26 -30 -7 -30 -8 30 -27 34 -12 59 -25 56 -29 -3 -5 0 -9 6
-9 21 0 117 -100 142 -148 27 -52 30 -118 7 -134 -10 -7 -8 -8 9 -3 19 5 22 3
22 -19 0 -16 6 -26 15 -26 12 0 15 -13 15 -58 0 -32 7 -83 16 -112 15 -51 15
-55 -2 -67 -10 -7 -24 -13 -31 -13 -27 0 -11 -16 34 -34 30 -13 75 -47 124
-95 67 -67 128 -147 118 -155 -2 -1 -19 -13 -37 -26 -45 -31 -87 -70 -75 -70
5 0 27 16 49 35 40 36 90 51 64 20 -7 -9 -15 -13 -18 -10 -7 6 -42 -25 -42
-37 0 -5 9 -4 20 2 11 6 25 8 30 5 13 -8 164 20 254 46 38 11 79 31 91 43 22
23 24 23 67 6 62 -23 128 -71 177 -127 42 -47 101 -157 101 -187 0 -22 32 -36
84 -36 l45 0 -26 46 c-18 32 -27 66 -31 114 -6 86 2 129 32 173 14 20 22 38
18 41 -3 3 1 6 9 6 9 0 25 13 37 30 13 16 46 43 75 60 28 16 45 30 37 30 -8 0
-26 12 -40 28 -14 15 -21 21 -15 12 5 -8 -4 -4 -19 10 -16 14 -26 18 -21 10 6
-12 5 -12 -5 -3 -14 13 -4 37 12 27 7 -5 9 -1 5 9 -5 14 -3 15 19 5 35 -16 38
-6 14 42 -12 23 -19 45 -15 48 3 3 37 7 76 8 66 3 99 14 99 35 0 5 -5 9 -11 9
-5 0 -7 -5 -4 -10 6 -10 -22 -26 -31 -18 -8 8 15 58 26 58 6 0 8 -4 5 -10 -3
-5 1 -10 10 -10 9 0 13 5 10 10 -3 6 4 10 17 10 18 0 20 -2 8 -10 -12 -8 -12
-10 -1 -10 10 0 11 -3 2 -14 -9 -10 -7 -16 5 -27 11 -9 18 -9 22 -2 4 6 16 12
27 15 12 2 19 10 17 21 -2 9 3 17 10 18 7 0 26 3 42 5 18 3 32 0 37 -8 7 -11
9 -11 9 0 0 7 4 11 9 7 14 -8 9 38 -6 53 -19 20 -16 40 9 53 18 10 24 8 39
-10 l18 -22 6 24 c11 41 -46 135 -107 179 l-33 23 28 -34 c18 -22 27 -42 23
-54 -3 -11 3 -28 14 -39 16 -17 17 -59 1 -58 -12 1 -51 38 -51 49 0 7 -8 8
-22 3 -33 -12 -51 -5 -73 28 -14 21 -31 31 -59 36 -43 7 -32 23 12 17 l27 -3
-25 10 c-14 6 -35 9 -47 7 -12 -2 -20 0 -17 4 3 5 13 9 22 9 15 1 15 2 -2 15
-15 11 -23 12 -33 3 -11 -8 -12 -7 -7 6 3 9 13 16 21 16 10 0 13 6 9 18 -4 11
0 9 10 -5 15 -21 42 -34 30 -14 -3 5 1 11 9 15 9 3 15 19 15 41 0 30 3 35 24
35 30 0 36 9 25 35 -6 17 -8 17 -8 3 -1 -10 -5 -18 -10 -18 -5 0 -8 18 -7 39
0 22 4 37 7 35 4 -2 5 5 2 16 -3 12 5 36 21 60 29 45 35 48 35 23 0 -10 3 -30
7 -45 4 -18 2 -28 -5 -28 -6 0 -11 -8 -12 -17 0 -15 -2 -15 -8 2 -7 17 -8 16
-13 -10 -7 -37 0 -55 18 -48 9 3 13 0 10 -8 -11 -36 -16 -73 -8 -61 7 10 13 4
26 -21 9 -19 16 -40 16 -46 0 -6 4 -11 9 -11 5 0 31 -20 58 -45 38 -33 53 -41
61 -33 9 9 15 9 25 -1 10 -11 9 -13 -5 -8 -10 4 -18 2 -18 -3 0 -5 11 -12 25
-16 13 -3 29 -12 36 -20 9 -12 15 -12 27 -2 9 7 13 8 10 3 -4 -6 4 -15 17 -22
18 -8 10 6 -27 47 -50 57 -71 70 -114 70 -12 0 -32 9 -45 21 l-24 20 23 -5
c12 -4 32 -9 43 -12 12 -3 19 -2 17 2 -15 28 -48 105 -48 112 0 4 7 17 16 28
8 10 13 13 9 7 -3 -7 -2 -13 3 -13 15 0 22 26 9 39 -8 8 -6 11 7 11 13 0 17
-5 13 -20 -5 -21 15 -44 28 -32 5 4 1 -5 -8 -20 -15 -24 -15 -28 -2 -28 8 0
14 -3 13 -7 -1 -5 2 -21 7 -36 5 -18 3 -33 -4 -40 -16 -16 -14 -23 7 -23 9 -1
29 -4 45 -9 32 -9 38 10 6 20 -11 4 -24 16 -28 28 -9 23 -3 46 8 29 3 -5 17
-13 30 -17 17 -5 22 -4 18 6 -2 8 -8 13 -13 12 -5 -1 -10 13 -11 30 -1 18 2
25 5 17 8 -16 29 -19 50 -7 7 5 12 4 12 -2 0 -19 15 -12 32 17 10 15 18 21 18
15 0 -7 7 -13 15 -13 8 0 15 -6 15 -12 0 -9 4 -8 10 2 8 12 10 11 10 -5 0 -16
7 -21 25 -21 16 0 21 4 15 11 -5 6 -7 20 -4 32 5 18 18 22 44 13 18 -7 89 4
107 16 12 8 31 14 42 14 17 0 18 3 8 25 -7 14 -15 25 -19 25 -5 0 -8 4 -8 9 0
12 -57 98 -71 106 -5 4 -7 11 -4 16 4 5 -5 5 -20 -1 -41 -16 -66 -12 -72 10
-3 11 -12 20 -20 20 -13 0 -13 2 -2 17 10 11 10 14 2 9 -7 -4 -13 -2 -13 3 0
6 -8 11 -17 12 -17 0 -16 1 0 8 17 6 16 8 -6 20 -14 7 -34 10 -46 6 -12 -4
-21 -2 -21 4 0 6 -4 11 -10 11 -5 0 -10 -7 -10 -17 0 -9 -3 -14 -6 -10 -3 3
-17 1 -31 -4 -19 -7 -24 -6 -20 3 2 7 10 12 16 10 7 -1 19 4 27 12 12 13 12
17 -2 30 -14 15 -28 20 -46 17 -12 -2 -9 37 2 44 8 5 7 12 -2 23 -12 14 -10
14 10 3 13 -7 28 -10 35 -7 7 2 4 5 -5 5 -10 1 -18 5 -18 10 0 10 34 21 67 21
12 0 25 5 29 11 14 23 -183 -33 -200 -57 -8 -10 -15 -11 -26 -3 -12 9 -12 10
4 5 16 -5 17 -4 7 8 -7 8 -18 13 -25 10 -8 -3 -16 3 -20 13 -3 10 -17 36 -30
58 -31 49 -32 59 -5 52 15 -4 18 -2 10 7 -6 7 -8 15 -5 18 2 3 7 18 10 34 7
36 14 44 14 16 0 -29 17 -28 23 1 4 19 4 18 6 -5 1 -31 15 -37 25 -12 5 13 9
14 20 5 11 -10 15 -8 19 6 4 17 5 17 6 1 0 -10 8 -18 16 -18 13 0 14 4 4 23
-11 19 -10 21 3 9 13 -10 17 -10 22 0 3 7 3 3 0 -9 -7 -32 4 -29 16 3 9 23 14
26 43 20 17 -4 51 -9 74 -13 l42 -6 -8 29 c-5 17 -14 28 -24 28 -9 -1 -13 4
-10 12 3 8 11 14 19 14 17 0 19 20 2 21 -7 0 -4 4 7 9 11 5 15 9 9 9 -6 1 -28
-6 -47 -14 -42 -18 -57 -19 -57 -5 0 6 7 10 16 10 8 0 12 5 9 10 -3 6 4 10 16
10 30 0 19 9 -13 12 -18 2 -24 7 -20 17 4 11 -1 13 -22 9 -15 -3 -24 -3 -21 0
2 3 0 11 -5 18 -8 8 -7 11 2 10 20 -2 21 19 1 22 -31 6 -40 22 -15 28 17 5 21
11 16 29 -4 17 -1 25 13 28 12 3 10 4 -4 2 -12 -1 -24 4 -27 12 -8 21 -9 21
22 17 15 -2 21 -1 15 2 -18 8 -16 25 2 18 8 -4 15 -1 15 5 0 6 16 10 39 8 21
-1 37 -5 34 -9 -2 -5 8 -7 24 -7 15 1 21 3 13 5 -9 3 -21 13 -28 24 -11 18
-10 19 15 9 15 -6 48 -20 73 -33 45 -22 70 -24 70 -4 0 11 -49 52 -65 54 -5 0
-26 2 -45 4 -19 1 -27 4 -17 7 9 2 17 12 17 21 0 15 -2 15 -11 2 -7 -10 -9
-11 -7 -2 2 8 7 13 11 13 3 0 20 4 37 9 23 7 30 5 30 -5 0 -8 6 -12 14 -9 7 3
20 -1 28 -8 7 -7 23 -18 33 -24 11 -6 22 -22 25 -35 6 -24 6 -24 18 6 12 29
12 28 8 -15 -3 -24 -12 -49 -20 -56 -23 -16 -20 -44 14 -116 36 -77 47 -165
30 -237 -6 -28 -15 -53 -19 -55 -3 -2 -31 -5 -61 -7 -30 -1 -59 -5 -65 -8 -22
-12 -50 -6 -55 13 -8 28 -27 31 -35 5 -5 -15 -2 -26 8 -34 14 -10 13 -13 -4
-23 -26 -17 -15 -32 22 -32 17 0 28 4 25 9 -9 15 29 19 42 4 7 -7 16 -13 21
-13 14 0 51 37 44 44 -3 3 1 6 10 6 24 0 21 -11 -10 -37 l-28 -22 36 6 c24 3
39 1 44 -7 5 -9 4 -11 -3 -6 -7 4 -12 3 -12 -3 0 -17 17 -22 44 -11 30 11 56
4 56 -17 0 -8 5 -11 11 -8 6 4 17 -1 24 -11 17 -23 19 -61 4 -66 -6 -2 -1 -15
11 -31 12 -15 25 -25 29 -22 9 5 30 -33 29 -55 0 -8 3 -28 7 -45 17 -72 17
-192 1 -247 -14 -49 -14 -61 -2 -96 l14 -40 -44 25 c-58 32 -174 45 -174 19 0
-12 10 -16 44 -16 26 0 46 -5 49 -12 3 -8 6 -6 6 5 1 24 20 21 64 -8 47 -33
59 -71 27 -97 -30 -24 -50 -23 -81 6 -40 37 -101 63 -84 36 4 -6 -1 -7 -11 -3
-41 16 57 34 106 20 23 -8 24 -7 7 7 -18 14 -46 14 -125 0 -23 -3 -32 -2 -27
6 3 5 10 8 15 5 5 -3 11 -1 15 5 3 6 -1 13 -10 16 -9 4 -14 12 -11 19 2 7 -4
15 -15 18 -10 3 -19 1 -19 -5 0 -5 -5 -6 -10 -3 -16 10 -108 -45 -145 -87 -23
-25 -32 -43 -28 -54 5 -13 3 -15 -8 -9 -8 4 -11 5 -7 0 10 -10 -10 -45 -25
-45 -8 0 -7 4 3 11 11 7 -1 8 -40 3 -62 -7 -68 -10 -53 -25 14 -14 83 -29 83
-18 0 16 15 9 29 -14 13 -20 13 -21 -1 -9 -13 10 -17 10 -22 -3 -3 -9 -2 -13
4 -10 6 4 10 -6 10 -22 0 -22 2 -25 10 -13 6 9 10 11 10 3 0 -7 7 -10 15 -6 9
3 15 2 14 -3 -1 -5 2 -18 6 -28 5 -13 5 -21 -2 -23 -12 -4 -6 -40 11 -63 6 -8
7 -12 2 -8 -5 4 -17 3 -27 -3 -15 -8 -19 -6 -20 8 0 10 -3 13 -5 6 -8 -18 26
-83 43 -83 8 0 12 -4 9 -9 -3 -4 4 -17 16 -27 19 -17 21 -17 15 -1 -4 9 -2 17
3 17 6 0 10 8 10 17 0 12 10 5 33 -20 28 -32 38 -37 72 -36 39 1 39 2 10 9
-16 4 -24 8 -17 9 18 1 -25 56 -57 71 -50 23 -5 29 72 9 83 -22 118 -20 97 6
-20 24 -8 60 21 63 22 3 25 7 21 29 -3 18 -1 24 7 19 6 -4 11 -4 11 1 0 4 21
8 48 9 55 1 112 27 113 52 0 9 3 12 5 5 3 -7 -6 -32 -20 -56 -14 -24 -23 -47
-19 -50 3 -4 0 -7 -8 -7 -11 0 -11 -2 1 -10 13 -8 12 -10 -3 -10 -14 0 -17 -5
-12 -21 5 -13 3 -19 -3 -15 -6 3 -15 -14 -21 -42 -12 -50 -12 -120 0 -128 5
-2 3 -18 -3 -35 -7 -20 -7 -33 -1 -38 6 -3 13 -18 16 -32 4 -15 16 -29 27 -32
11 -3 20 -11 20 -19 0 -10 -2 -10 -10 2 -20 32 -21 -2 -1 -43 11 -24 21 -52
21 -63 0 -11 13 -38 30 -60 16 -21 30 -43 30 -49 0 -5 -11 -33 -24 -61 -46
-98 -143 -168 -252 -180 l-58 -7 125 -33 c68 -19 130 -31 137 -29 7 3 10 0 7
-5 -3 -6 2 -10 11 -10 10 0 15 3 11 6 -3 3 10 20 29 36 33 30 59 35 31 7 -7
-8 -16 -21 -19 -30 -5 -14 3 -14 85 -2 133 20 297 58 356 83 46 20 56 30 52
52 0 4 5 5 13 2 8 -3 17 0 22 7 4 8 3 10 -4 5 -7 -4 -12 -2 -12 3 0 22 47 10
109 -26 129 -77 231 -226 254 -373 l11 -69 69 -27 c58 -24 70 -26 78 -13 5 8
25 40 45 71 l35 57 92 -39 c369 -154 777 -359 1125 -566 l124 -74 294 288 293
287 1 289 0 288 -40 -35 c-76 -70 -181 -107 -300 -107 -137 0 -246 47 -341
147 -128 134 -160 315 -85 479 14 29 37 70 52 89 25 33 29 35 88 35 82 0 298
26 366 45 30 8 66 23 81 34 26 19 26 19 60 -1 19 -11 53 -36 77 -55 l42 -34 0
349 0 350 -35 53 c-44 65 -43 94 2 94 l33 0 0 792 0 793 -57 -1 c-32 -1 -107
-6 -168 -10z m-2267 -438 c117 -60 186 -172 184 -296 -2 -95 -4 -107 -24 -129
-10 -11 -21 -36 -24 -55 -11 -58 -21 -71 -57 -71 -24 0 -44 10 -70 34 -41 37
-59 39 -127 7 -30 -14 -66 -21 -109 -21 -53 0 -62 -2 -57 -16 3 -9 6 -19 6
-23 0 -4 21 -7 48 -6 26 1 51 -1 57 -4 28 -14 69 -10 82 9 18 25 58 26 75 1
14 -20 70 -20 93 -1 7 5 14 7 18 4 3 -3 21 2 40 11 35 16 57 49 58 88 0 21 1
21 10 -3 6 -14 9 -59 7 -101 -2 -64 -9 -87 -40 -150 l-38 -74 15 -49 c18 -58
19 -121 4 -181 -9 -37 -8 -51 11 -103 18 -49 21 -77 18 -144 -4 -96 -25 -150
-89 -221 -41 -48 -145 -107 -186 -107 -12 0 -23 -4 -23 -10 0 -35 -192 18
-270 75 -127 93 -175 275 -111 420 20 44 21 55 10 98 -15 63 -7 140 21 206 21
47 21 53 7 74 -23 36 -47 125 -47 177 0 49 25 148 42 165 5 6 5 -2 -1 -18 -15
-38 -13 -78 3 -100 11 -14 15 -15 19 -5 3 8 6 6 6 -6 1 -11 6 -16 15 -13 9 4
20 -6 30 -26 13 -27 22 -24 17 5 0 4 10 15 22 25 13 10 22 24 19 31 -2 6 2 12
9 12 7 0 9 3 6 6 -4 4 -13 1 -21 -5 -12 -10 -18 -7 -30 18 -23 43 -20 71 13
123 37 58 112 98 185 98 56 0 133 -30 142 -54 5 -12 11 -13 24 -6 13 7 21 7
25 -1 6 -9 57 -4 78 8 4 3 -9 18 -30 34 -49 37 -153 70 -223 70 -88 0 -96 1
-96 23 0 12 11 23 28 30 30 11 37 26 13 26 -9 0 -15 9 -15 25 0 23 -2 24 -20
15 -28 -15 -26 5 2 24 12 9 30 16 40 16 12 0 19 11 24 36 l7 36 66 -4 c40 -3
83 -14 109 -27z m-1910 -354 c51 -33 91 -91 99 -143 l6 -39 -47 52 c-60 67
-146 110 -241 121 l-70 9 35 16 c56 27 166 19 218 -16z m2584 -118 c120 -26
217 -100 272 -209 67 -135 53 -292 -37 -404 -20 -25 -31 -29 -74 -30 -28 -1
-49 -4 -46 -8 7 -13 -22 -9 -35 4 -14 14 -16 52 -2 43 6 -4 6 4 -1 22 -7 20
-7 29 1 31 8 3 8 8 0 17 -7 9 -6 16 5 25 16 13 21 35 6 26 -10 -7 -33 49 -24
58 11 11 23 6 23 -9 0 -8 4 -15 8 -15 5 0 8 10 8 22 -1 15 6 24 24 28 18 4 21
8 11 14 -7 5 -34 41 -61 81 -40 63 -49 71 -61 60 -12 -12 -21 -8 -61 30 -34
31 -43 45 -32 49 8 3 14 11 14 18 0 10 -2 10 -8 1 -12 -18 -51 -12 -44 7 3 8
9 17 14 20 11 8 -11 80 -25 81 -7 1 4 4 23 8 25 4 35 11 34 24 -2 20 -1 20 68
6z m-2519 -107 c3 7 6 0 7 -17 1 -30 1 -30 11 -5 l10 24 19 -29 c11 -17 20
-40 20 -52 0 -12 4 -24 9 -27 5 -4 5 9 1 30 -6 25 -5 33 2 26 6 -6 13 -40 15
-76 5 -58 4 -66 -10 -60 -14 5 -15 1 -6 -30 7 -25 7 -41 -1 -54 -10 -15 -11
-14 -7 5 3 13 1 26 -4 29 -5 3 -9 -5 -9 -18 0 -17 -3 -19 -9 -9 -7 10 -10 10
-16 1 -4 -7 -2 -16 5 -20 9 -5 9 -13 1 -27 -5 -11 -8 -23 -5 -26 7 -6 -92
-107 -105 -107 -4 0 -20 -9 -34 -20 -15 -12 -29 -21 -32 -20 -3 0 -14 -9 -25
-20 -15 -15 -16 -20 -6 -20 8 0 22 7 30 16 9 8 16 13 16 9 0 -15 86 44 121 84
l39 44 0 -38 c0 -57 -20 -111 -56 -154 l-33 -38 30 -29 c39 -37 72 -91 64
-104 -3 -5 -1 -10 6 -10 7 0 10 -3 6 -6 -3 -3 3 -23 14 -42 24 -46 26 -127 3
-136 -8 -3 -12 -10 -9 -16 3 -5 0 -8 -7 -5 -13 4 -57 -31 -88 -70 -11 -14 -11
-17 -2 -11 11 7 12 4 3 -13 -7 -11 -14 -21 -17 -21 -3 0 -2 5 2 12 5 7 3 8 -5
4 -7 -5 -10 -15 -6 -23 8 -22 -4 -55 -17 -47 -7 5 -8 2 -2 -7 4 -8 8 -25 7
-39 -2 -19 1 -17 10 10 7 19 20 46 29 59 15 21 18 22 24 8 3 -10 1 -24 -6 -32
-20 -24 -18 -120 3 -143 9 -10 14 -21 11 -25 -3 -3 -2 -12 2 -19 5 -7 9 -30
10 -51 1 -37 1 -37 -18 -17 -10 11 -25 20 -34 20 -8 0 -19 10 -24 23 -8 20 -9
20 -9 -9 -1 -47 -28 -126 -55 -163 -62 -83 -184 -134 -270 -113 -32 7 -35 10
-15 11 19 1 50 24 103 74 62 59 82 72 111 74 20 1 46 9 58 18 21 14 19 15 -25
15 l-47 0 27 60 c26 57 28 59 65 60 33 0 37 3 32 19 -3 10 -1 29 5 42 9 23 9
23 7 -5 -1 -17 4 -31 12 -34 10 -3 12 3 6 29 -4 19 -12 39 -19 44 -7 6 -12 24
-12 40 0 25 -4 30 -22 28 -12 -2 -21 1 -21 5 1 4 0 9 -1 12 -1 3 -7 32 -15 65
-12 58 -12 61 13 90 39 47 60 101 53 138 -7 32 -32 51 -82 61 -45 9 -100 149
-64 163 8 3 15 15 15 27 1 20 2 20 14 4 7 -10 16 -18 19 -18 11 0 -6 35 -21
44 -11 6 -11 10 -2 16 7 4 -5 10 -29 14 -30 5 -39 10 -35 21 4 8 15 15 25 15
10 0 19 5 19 10 0 6 7 10 16 10 8 0 12 5 9 10 -3 6 -17 10 -31 10 -17 0 -24 5
-24 20 0 17 -2 19 -14 8 -10 -9 -11 -15 -2 -20 6 -4 -5 -8 -24 -8 -19 0 -30 4
-24 8 6 4 13 14 16 23 4 9 21 19 38 23 28 5 31 8 20 21 -14 17 -35 21 -25 5 3
-5 1 -10 -4 -10 -6 0 -11 8 -11 18 0 27 -11 34 -28 19 -13 -10 -15 -9 -9 6 6
15 -6 22 -35 18 -8 -1 -4 26 5 35 9 9 59 -5 53 -15 -3 -4 2 -17 10 -27 11 -14
17 -15 20 -6 9 20 26 14 19 -7 -3 -11 -1 -22 5 -26 6 -4 10 5 10 21 0 24 3 26
30 20 17 -3 29 -2 26 3 -3 5 2 11 13 14 26 6 35 47 11 47 -10 0 -25 -6 -33
-14 -20 -21 -60 -9 -54 15 3 12 0 19 -9 19 -8 0 -14 4 -14 10 0 6 9 6 26 0 32
-12 74 -3 74 17 0 8 5 11 11 7 6 -4 27 -10 46 -14 31 -7 34 -6 30 10 -7 26 21
34 35 10 15 -24 35 -26 35 -5 0 8 -6 15 -14 15 -12 0 -17 13 -14 33 0 4 -6 7
-15 7 -9 0 -31 15 -50 34 -18 18 -35 33 -36 32 -2 0 8 8 22 19 14 11 38 32 55
47 26 24 32 25 41 12 10 -12 13 -12 17 -2z m3947 -87 c17 -9 30 -20 30 -25 0
-6 5 -10 10 -10 6 0 10 7 10 16 0 14 3 14 16 4 8 -8 27 -15 42 -16 31 -3 82
-55 82 -83 0 -32 -11 -51 -30 -51 -19 0 -80 63 -80 83 0 8 -4 7 -10 -3 -7 -12
-11 -10 -19 10 -6 15 -10 19 -10 9 -1 -29 -42 -70 -65 -67 -11 2 -20 9 -18 17
6 29 -34 3 -45 -29 -10 -31 -12 -32 -13 -10 -1 23 -2 23 -10 5 -11 -25 -12
-55 -2 -54 4 1 15 1 26 0 15 -1 16 -4 6 -16 -8 -9 -8 -15 -2 -15 6 0 14 9 17
20 7 23 35 27 35 5 0 -8 5 -15 11 -15 6 0 9 7 5 15 -3 8 -1 15 4 15 6 0 10 -4
10 -10 0 -5 9 -10 19 -10 11 0 23 5 26 10 9 14 43 12 48 -2 3 -10 14 -10 53 0
63 17 78 33 77 79 0 29 1 33 7 18 14 -33 11 -133 -4 -169 l-14 -33 -56 9
c-112 20 -265 -28 -367 -113 -47 -39 -48 -39 -59 -19 -7 13 -17 19 -27 16 -9
-4 -17 1 -20 13 -5 18 -7 18 -30 -9 -14 -17 -30 -30 -37 -30 -17 0 -58 45 -49
53 3 4 -1 7 -11 7 -9 0 -19 -8 -23 -17 -8 -24 -44 -63 -57 -63 -5 0 -1 7 10
15 19 14 19 14 -1 16 -17 1 -16 2 5 9 24 8 24 8 3 9 -28 1 -29 12 -4 31 11 7
17 18 14 22 -7 12 -43 -21 -43 -39 0 -7 -4 -13 -9 -13 -12 0 18 92 33 103 6 4
28 12 49 17 37 11 47 24 25 33 -31 13 84 5 127 -8 27 -8 50 -13 52 -11 1 1 -2
18 -7 37 -11 36 -5 115 11 139 6 11 9 12 9 2 0 -7 4 -11 9 -8 5 4 5 -10 0 -32
l-8 -37 19 25 c20 25 20 25 26 4 6 -22 41 -27 37 -6 -2 6 4 9 11 6 11 -4 13 0
9 15 -6 23 -28 28 -36 9 -3 -7 -6 3 -6 22 -1 35 16 63 54 90 11 8 7 1 -9 -16
-16 -17 -30 -41 -31 -52 -2 -21 -1 -21 18 -5 15 13 18 14 13 3 -5 -8 3 -1 17
15 16 18 24 39 22 52 -5 34 55 44 105 18z m-4376 -371 c13 -33 6 -52 -21 -58
-44 -12 -114 -66 -142 -111 -24 -40 -29 -43 -86 -51 -33 -5 -70 -8 -82 -7 -13
1 -23 -3 -23 -9 0 -6 -3 -8 -6 -5 -4 4 -1 13 5 21 7 8 8 17 3 20 -6 3 -7 20
-2 40 4 18 3 41 -2 50 -6 10 -5 16 2 16 5 0 9 3 8 8 -2 4 2 8 7 9 6 1 9 -7 7
-17 -2 -11 2 -20 8 -20 6 0 9 -4 6 -8 -2 -4 4 -8 14 -8 11 0 16 5 12 15 -4 10
-1 12 8 6 7 -4 29 -8 48 -7 24 1 33 -2 29 -12 -4 -9 2 -12 21 -9 50 8 54 11
42 33 -11 20 3 30 15 10 8 -13 46 27 43 45 -2 8 13 26 32 39 42 30 46 31 54
10z m3761 6 c-3 -5 -2 -10 4 -10 5 0 13 -10 16 -21 6 -17 9 -19 16 -8 6 9 9
10 9 2 0 -17 -17 -25 -26 -12 -4 7 -11 1 -19 -17 -13 -33 -1 -74 22 -74 7 0
13 -5 13 -11 0 -7 11 -9 30 -5 21 4 30 2 30 -8 0 -13 13 -16 68 -16 17 0 32
-3 32 -9 0 -5 10 -12 23 -16 l22 -7 -25 -7 c-33 -9 -10 -24 24 -15 21 5 24 9
16 24 -8 15 -6 20 11 25 19 6 20 7 2 20 -10 7 -15 16 -11 20 10 10 50 -15 44
-28 -35 -82 -48 -154 -44 -237 4 -77 9 -98 41 -163 26 -53 54 -91 97 -130 33
-31 60 -61 60 -67 0 -24 -41 -89 -75 -118 -63 -56 -112 -76 -190 -76 -62 -1
-77 3 -128 33 -71 41 -100 78 -131 165 l-23 67 -6 -55 c-7 -71 -39 -141 -85
-189 -38 -40 -118 -87 -149 -87 -10 -1 3 -12 28 -25 62 -32 134 -114 154 -176
24 -71 17 -179 -15 -243 -120 -237 -485 -212 -580 40 -55 150 13 314 161 384
l56 26 -43 24 c-24 12 -62 43 -85 67 l-40 44 -32 -20 c-47 -28 -133 -51 -195
-51 l-54 0 27 36 c36 47 65 124 65 171 0 20 -3 34 -6 30 -4 -3 -13 1 -22 9
-13 14 -13 17 -1 25 12 8 12 10 -1 19 -8 5 -10 10 -4 10 7 0 15 7 18 16 3 8 2
13 -3 10 -4 -3 -14 14 -22 37 -16 49 -87 124 -144 152 -31 15 -61 20 -127 20
-49 0 -88 2 -88 6 0 15 61 98 95 128 47 41 147 89 153 73 2 -7 11 -7 31 1 20
8 54 10 107 5 44 -4 89 -8 102 -8 71 -1 232 -156 232 -223 0 -16 5 -18 28 -12
57 16 103 22 137 19 22 -1 33 1 29 8 -9 15 52 0 99 -24 81 -41 166 -149 168
-212 0 -12 9 8 20 43 25 76 92 149 165 177 42 16 44 18 25 28 -45 25 -143 130
-157 169 -26 72 -13 163 31 231 16 24 34 38 20 16z m-1124 -1055 c6 14 7 7 6
-25 l-2 -45 65 -3 c75 -4 90 -13 120 -84 48 -112 22 -247 -64 -334 -70 -69
-144 -98 -241 -91 -74 4 -150 33 -150 56 0 8 -13 15 -30 17 -21 2 -25 0 -15
-6 8 -5 12 -11 10 -13 -3 -2 -16 -11 -30 -20 -27 -18 -100 -23 -100 -7 0 6 6
10 13 10 8 0 7 3 -3 10 -23 14 -1 28 50 32 l45 4 -34 15 -33 16 32 7 c18 3 43
6 56 6 24 0 32 14 14 25 -17 11 -11 23 12 27 18 2 25 13 33 50 5 25 13 49 17
53 4 4 4 13 1 21 -3 8 -1 14 4 14 6 0 16 19 23 43 8 23 24 60 36 82 12 22 21
43 20 48 0 4 14 16 32 27 18 11 41 34 50 50 9 16 20 30 25 30 4 0 7 8 8 18 0
9 5 1 11 -18 9 -31 11 -33 19 -15z"/>
<path d="M8815 4818 c-22 -12 -58 -27 -79 -33 -33 -10 -43 -19 -58 -56 -11
-24 -16 -40 -12 -37 3 4 17 3 30 -2 19 -8 24 -6 24 6 0 26 44 13 48 -15 4 -23
4 -23 115 -19 119 5 207 29 177 48 -8 5 -28 10 -45 10 -25 0 -36 9 -63 51 -26
40 -37 49 -52 44 -13 -4 -22 -1 -26 9 -8 20 -10 20 -59 -6z"/>
<path d="M9177 4704 c-3 -18 -1 -22 6 -15 15 15 40 14 35 -1 -3 -7 -10 -13
-15 -13 -6 0 -14 -3 -17 -7 -3 -5 -3 -6 1 -3 3 3 13 -1 21 -8 13 -10 14 -9 7
2 -6 11 -4 13 9 8 10 -4 26 -2 37 3 15 8 19 7 19 -4 0 -20 20 -32 29 -17 5 7
30 -3 76 -31 40 -23 71 -36 73 -30 2 6 9 9 17 6 8 -4 31 17 59 52 25 32 44 59
42 61 -1 2 -17 0 -34 -3 -21 -4 -32 -13 -36 -29 -7 -28 -45 -43 -57 -24 -4 7
-5 17 -2 23 3 5 1 6 -6 2 -6 -4 -13 -1 -16 6 -4 9 -27 13 -76 13 -48 0 -73 4
-76 12 -3 7 -9 10 -14 7 -5 -3 -9 -1 -9 4 0 5 -15 9 -34 10 -29 1 -35 -3 -39
-24z"/>
<path d="M3915 6500 c-100 -39 -185 -142 -185 -225 l0 -41 -84 -12 -85 -12
-51 54 c-70 74 -148 108 -244 108 -127 0 -234 -59 -294 -160 -15 -26 -27 -50
-27 -54 0 -3 -3 -10 -7 -14 -5 -4 -8 -16 -8 -26 0 -10 -3 -18 -7 -19 -5 0 -87
-15 -183 -33 -170 -33 -176 -33 -195 -16 -61 57 -176 75 -250 41 -77 -35 -135
-119 -121 -175 6 -23 50 -51 67 -41 5 4 9 2 9 -3 0 -6 9 -8 20 -5 11 3 17 9
14 14 -3 5 -1 9 5 9 6 0 15 -9 21 -20 8 -14 8 -20 0 -20 -7 0 -8 -6 -1 -19 8
-14 7 -22 -4 -31 -8 -7 -15 -9 -15 -4 0 4 -6 0 -13 -10 -13 -17 -14 -17 -30
-1 -9 9 -17 27 -17 41 0 17 -6 24 -19 24 -41 0 -51 11 -51 57 0 42 -2 45 -22
40 -13 -3 -134 -29 -270 -58 -136 -28 -252 -55 -259 -60 -7 -4 -14 -33 -17
-64 -4 -45 -9 -59 -23 -62 -10 -3 -16 -9 -13 -14 12 -19 -77 -139 -104 -139
-8 0 13 -14 47 -31 39 -20 70 -44 86 -67 24 -36 33 -72 17 -72 -4 0 -29 -17
-54 -37 -74 -59 -85 -69 -69 -58 14 9 14 8 2 -7 -7 -10 -17 -15 -22 -12 -5 3
-23 7 -39 9 -26 3 -30 1 -30 -18 0 -13 -4 -27 -9 -32 -10 -11 4 -55 17 -55 8
0 32 43 32 56 0 3 -9 0 -21 -6 -11 -7 -23 -9 -26 -7 -5 6 50 37 65 37 5 0 -1
-21 -14 -47 -13 -25 -24 -53 -24 -60 0 -8 -4 -12 -9 -9 -5 4 -7 -3 -4 -14 7
-27 -20 -27 -47 0 -24 24 -25 38 -5 64 14 19 13 21 -17 30 -25 8 -35 19 -43
44 -9 33 -25 44 -25 17 0 -8 -6 -12 -15 -9 -8 3 -13 9 -12 13 1 5 -13 22 -32
40 -28 26 -32 36 -27 61 3 17 4 30 3 30 -2 0 -32 -16 -67 -35 -38 -20 -57 -35
-45 -35 34 0 138 -56 178 -95 223 -219 108 -578 -204 -636 -168 -31 -344 62
-417 219 -22 48 -27 71 -27 147 0 77 4 98 27 147 36 77 107 151 180 187 58 29
59 30 31 37 -88 21 -194 103 -240 184 -24 43 -29 47 -52 40 -14 -5 -142 -41
-283 -80 l-258 -72 0 -1740 0 -1739 120 106 c379 332 829 650 1283 904 258
144 668 341 711 341 13 0 68 18 122 41 231 96 536 203 788 275 l118 34 35 -21
c52 -32 131 -69 148 -69 8 0 15 -5 15 -11 0 -6 -7 -9 -15 -5 -8 3 -15 1 -15
-5 0 -6 -4 -7 -10 -4 -5 3 -18 1 -27 -5 -16 -10 -16 -11 2 -6 20 6 20 6 0 -9
-12 -10 -21 -12 -23 -5 -2 5 -8 7 -14 4 -6 -4 -5 -10 3 -15 10 -6 0 -21 -41
-59 -30 -28 -47 -49 -37 -46 10 3 27 6 38 6 10 0 19 5 19 12 0 24 50 75 100
102 47 26 59 28 112 22 82 -8 171 3 164 20 -3 9 2 14 14 14 10 0 28 14 40 30
14 20 30 30 48 30 l27 1 -30 14 -30 13 47 1 47 1 -24 25 c-30 29 -32 51 -7 60
17 5 19 19 21 127 l2 122 -21 -19 c-18 -16 -19 -20 -5 -35 17 -18 21 -65 5
-55 -5 3 -7 0 -4 -8 5 -15 -22 -44 -33 -34 -3 4 0 15 8 24 10 15 10 16 0 6
-10 -8 -18 -9 -31 -1 -15 10 -16 13 -4 26 8 7 12 17 9 22 -3 4 1 10 9 13 7 3
16 19 18 36 4 26 2 29 -11 18 -12 -10 -14 -9 -8 6 4 10 7 22 7 26 0 5 11 6 24
4 31 -6 42 13 16 27 -11 6 -18 16 -14 22 4 7 13 3 23 -11 17 -22 18 -22 62 -5
24 9 46 19 48 20 2 2 -14 23 -36 47 -22 24 -58 80 -79 125 -27 56 -46 83 -61
88 -16 4 -28 23 -43 69 -12 35 -27 66 -33 68 -7 2 -12 12 -12 23 0 13 -6 18
-20 16 -11 -2 -17 0 -12 4 4 4 -5 13 -20 20 -29 12 -28 14 25 30 20 6 14 23
-12 30 -15 3 -23 11 -20 19 3 8 11 12 17 10 29 -10 67 -13 72 -5 6 10 -73 22
-155 22 -36 1 -54 2 -40 5 165 24 329 69 352 95 21 24 13 45 -10 26 -13 -11
-13 -8 2 13 16 26 16 27 -1 25 -10 0 -21 -8 -25 -16 -6 -13 -7 -13 -7 0 -1 8
16 28 36 44 20 16 33 24 29 18 -11 -19 5 -14 20 6 7 9 14 30 14 45 0 23 4 28
23 25 12 -2 25 -7 29 -13 4 -5 8 8 8 30 0 46 11 67 31 63 9 -2 14 5 13 19 0
18 2 20 13 11 12 -10 13 -7 7 18 -4 16 -15 46 -26 67 -10 20 -14 37 -10 37 14
0 46 -91 46 -132 1 -20 4 -34 9 -31 4 2 7 -26 6 -64 0 -51 -3 -63 -10 -48 -7
15 -8 9 -5 -25 2 -25 2 -39 -1 -32 -10 26 -25 10 -21 -23 3 -26 0 -35 -10 -35
-12 0 -12 -3 -2 -15 11 -13 9 -15 -11 -13 -15 2 -23 -2 -21 -10 1 -7 -18 -38
-43 -68 -25 -31 -45 -60 -45 -64 0 -27 27 -69 79 -121 61 -62 106 -137 137
-229 28 -82 26 -244 -4 -329 -13 -35 -21 -65 -18 -68 4 -5 176 14 203 22 8 3
6 22 -9 67 -33 105 -11 268 49 354 31 45 53 81 53 89 0 3 -6 5 -13 5 -8 0 -14
7 -14 15 0 10 6 13 17 10 23 -7 67 9 52 19 -7 4 -12 4 -12 0 0 -3 -7 -1 -16 7
-13 10 -17 10 -24 0 -6 -11 -10 -9 -19 6 -5 11 -8 23 -5 26 3 3 -4 11 -16 17
-12 6 -19 14 -17 17 3 2 15 -1 27 -7 17 -9 26 -8 44 4 15 9 27 11 33 5 6 -6
10 -4 10 6 0 8 -9 15 -19 15 -10 0 -18 -4 -18 -10 0 -16 -20 -12 -27 6 -7 19
17 37 32 24 6 -5 17 -5 25 0 8 6 11 10 5 10 -5 0 -3 5 5 10 12 8 10 10 -10 10
-14 1 -39 2 -57 2 -17 1 -49 -8 -71 -19 -29 -14 -45 -17 -57 -10 -13 7 -16 6
-13 -4 3 -8 10 -15 16 -15 7 -1 17 -2 23 -3 5 0 8 -5 5 -10 -3 -5 1 -14 9 -21
18 -15 10 -31 -10 -24 -8 4 -13 10 -10 14 3 4 -2 13 -10 20 -12 10 -15 10 -15
-2 0 -22 30 -59 42 -52 7 5 8 2 3 -6 -6 -9 -4 -12 7 -8 8 4 15 0 15 -7 0 -12
-5 -11 -27 0 -38 19 -100 91 -100 115 0 28 30 39 135 49 50 5 74 9 55 10 -19
1 -53 6 -75 10 l-40 7 33 17 c29 16 31 19 17 33 -8 9 -18 26 -21 39 -7 28 -26
37 -60 29 -18 -5 -24 -2 -24 11 0 13 -6 16 -27 11 -16 -3 -23 -3 -17 0 8 3 5
13 -9 28 -21 23 -31 66 -15 66 4 0 8 -5 8 -11 0 -5 5 -7 10 -4 12 7 14 26 3
24 -5 -1 -18 -1 -30 0 -26 1 -32 28 -9 37 8 3 13 11 10 17 -8 22 62 122 111
159 27 20 55 49 63 63 13 25 12 29 -12 54 -14 15 -35 27 -46 28 -56 4 -203
243 -150 243 6 0 10 -11 10 -24 0 -14 5 -28 12 -32 8 -5 9 0 5 15 -3 12 1 35
10 51 8 16 11 35 7 41 -4 8 -3 9 4 5 8 -5 10 -2 6 8 -3 9 -2 16 4 16 5 0 12
-10 16 -22 9 -34 7 -50 -4 -43 -7 4 -10 -13 -8 -48 2 -30 6 -53 9 -51 4 2 10
-3 13 -12 9 -23 7 -36 -4 -29 -5 3 -10 2 -10 -3 0 -20 14 -20 38 -2 26 21 62
27 62 10 0 -5 7 -10 15 -10 8 0 15 5 15 11 0 5 5 7 11 3 6 -3 3 8 -5 25 -9 17
-13 31 -9 31 5 1 -5 8 -20 16 -28 15 -28 16 -10 36 14 16 14 20 3 16 -8 -2
-20 -15 -27 -29 -18 -36 -37 -29 -44 16 -3 22 -9 48 -14 58 -9 22 12 23 51 2
44 -22 71 -20 70 8 -1 27 30 34 59 13 16 -11 17 -16 6 -29 -11 -14 -9 -16 8
-14 11 0 17 5 15 9 -10 16 23 18 52 3 26 -13 29 -13 32 0 6 26 32 16 46 -16
11 -26 14 -28 25 -15 7 8 20 12 28 9 12 -5 14 -3 8 7 -6 9 -4 11 4 6 7 -5 10
-10 7 -13 -3 -3 -1 -14 4 -23 11 -21 -15 -37 -34 -21 -8 6 -15 2 -23 -15 -10
-21 -9 -24 7 -24 9 0 29 9 43 20 14 11 30 20 35 20 21 0 36 31 25 49 -8 12 -8
22 -1 32 8 11 9 10 4 -4 -4 -13 -1 -17 12 -15 9 1 23 -1 30 -5 7 -5 12 -5 11
0 -3 19 2 25 15 14 11 -9 13 -7 12 11 -1 18 4 23 21 22 16 -1 20 3 15 15 -5
13 -3 14 10 4 19 -16 28 -7 28 26 0 24 1 24 15 5 9 -12 14 -14 15 -6 0 7 5 10
10 7 7 -4 8 3 4 22 -16 67 -47 133 -81 174 -21 24 -30 38 -20 30 15 -12 17
-10 17 25 0 21 9 57 21 81 30 61 72 91 145 99 l59 7 -50 23 -50 23 43 0 c30 1
42 5 42 16 0 8 -4 15 -9 15 -6 0 -9 10 -9 23 1 32 27 88 39 82 5 -4 9 1 9 9 0
10 8 14 28 12 36 -5 45 2 28 19 -7 8 -24 12 -37 9 -20 -5 -21 -4 -9 6 12 10
11 11 -8 7 -12 -3 -20 -1 -17 4 3 4 -3 17 -14 28 -22 22 -15 36 9 20 22 -13
25 -11 26 16 2 28 -21 33 -59 14 -22 -12 -22 -12 -3 10 28 31 60 26 106 -16
54 -49 64 -68 50 -93 -8 -14 -8 -20 0 -20 25 0 50 22 50 43 0 13 5 28 12 35 9
9 9 12 -3 12 -8 0 -22 13 -32 29 -9 16 -34 40 -53 52 -34 21 -35 23 -18 36 10
7 23 13 28 13 6 0 19 14 28 30 l17 30 -35 0 c-37 0 -86 -21 -119 -50 -11 -10
-37 -23 -59 -29 -21 -5 -55 -21 -75 -35 -30 -21 -65 -29 -216 -51 -212 -30
-215 -30 -215 -9 0 9 -28 44 -62 78 -48 47 -76 66 -117 79 -70 22 -163 21
-226 -3z m291 -315 c-6 -17 5 -20 20 -5 12 12 64 -28 64 -48 0 -7 -9 -30 -20
-51 -10 -21 -17 -41 -15 -43 3 -3 -11 -19 -30 -37 l-35 -31 -14 32 c-8 18 -15
28 -15 21 -1 -6 -10 -9 -21 -6 -14 4 -20 1 -18 -7 2 -7 -13 -19 -32 -27 -32
-12 -33 -12 -16 2 11 8 24 15 29 15 5 0 7 7 4 15 -4 8 -2 17 4 21 6 4 6 11 -2
20 -8 10 -8 14 0 14 6 0 11 -4 11 -10 0 -5 5 -10 10 -10 13 0 13 37 0 45 -6 4
-4 12 5 22 13 12 13 18 3 32 -11 14 -11 14 2 4 19 -14 46 -1 35 17 -5 9 -4 11
4 6 6 -4 14 0 17 8 3 9 8 16 11 16 3 0 3 -7 -1 -15z m309 -310 c63 -30 76 -41
109 -89 36 -54 34 -90 -8 -132 -29 -29 -39 -34 -63 -28 -36 9 -35 8 -35 39 0
18 -6 25 -19 25 -11 0 -19 7 -19 15 0 14 -16 24 -65 40 -16 5 -17 8 -5 15 11
7 12 10 2 10 -7 0 -10 5 -6 11 5 8 -1 10 -20 7 -20 -4 -29 0 -37 16 -10 20
-10 20 5 2 10 -12 16 -15 16 -7 0 9 8 11 26 7 17 -5 23 -3 19 4 -3 5 -16 10
-28 10 -16 0 -19 3 -8 9 7 5 10 14 7 20 -4 7 1 11 13 11 41 0 31 20 -11 22
l-43 1 45 7 c72 11 73 11 125 -15z m-1280 -145 c-9 -14 98 -13 113 2 6 6 14 9
17 6 10 -9 -6 -37 -23 -41 -12 -3 -7 -8 16 -19 l34 -15 -56 -6 c-46 -5 -95
-22 -178 -65 -5 -2 -8 10 -8 27 0 24 7 36 32 51 26 16 29 20 15 26 -15 5 -14
8 6 25 24 20 42 25 32 9z m170 -87 c-36 -3 -45 -7 -35 -14 11 -8 7 -9 -15 -5
-36 7 -88 -17 -61 -27 24 -9 12 -23 -26 -32 -18 -4 -27 -9 -20 -12 6 -2 10 -9
7 -13 -3 -5 -12 -7 -20 -4 -11 5 -12 0 -6 -24 13 -45 28 -67 62 -96 30 -25 56
-35 45 -17 -10 16 33 19 76 6 24 -8 41 -14 38 -15 -3 -1 -16 -3 -30 -6 -14 -2
-38 -9 -53 -15 -24 -10 -37 -7 -101 25 -41 20 -81 48 -91 62 -56 86 77 194
235 191 l45 -1 -50 -3z m-1215 -149 c23 -9 37 -21 33 -27 -3 -6 -1 -7 5 -3 15
9 64 -43 57 -61 -2 -8 0 -11 5 -8 6 4 10 -6 10 -23 0 -31 -32 -68 -49 -57 -17
10 -13 -4 8 -30 20 -26 41 -17 41 17 0 18 16 25 22 9 2 -4 12 1 23 11 20 19
20 19 0 12 -11 -4 -17 -4 -13 0 3 4 18 9 33 10 19 3 23 0 16 -7 -30 -30 18
-87 73 -87 39 0 68 9 62 19 -3 4 4 12 14 19 36 22 31 -6 -6 -34 -27 -21 -50
-29 -95 -32 -47 -4 -59 -8 -59 -21 0 -26 -49 -119 -73 -139 -24 -19 -56 -69
-38 -57 6 3 11 1 11 -4 0 -14 -16 -14 -43 0 -37 20 -39 33 -4 45 27 9 32 16
32 43 0 19 5 31 13 31 10 0 10 3 -2 15 -20 20 -26 19 -26 -4 0 -25 -10 -51
-19 -51 -4 0 -8 15 -8 34 0 28 5 36 24 41 13 3 23 10 23 16 0 6 -5 7 -12 3 -7
-4 -8 -3 -4 5 5 7 -4 29 -19 52 -21 32 -24 43 -14 55 9 11 7 14 -10 14 -23 0
-81 38 -81 52 0 4 9 8 21 8 11 0 17 5 14 10 -4 6 -11 8 -16 5 -5 -4 -9 -3 -10
2 0 4 -3 17 -5 28 -3 11 -5 28 -5 38 0 9 -4 17 -9 17 -5 0 -16 3 -26 7 -11 4
-15 3 -11 -4 4 -7 0 -9 -11 -6 -16 4 -18 -1 -14 -32 l4 -37 -31 16 c-35 18
-40 45 -13 69 42 39 116 47 182 21z m824 -168 c-4 -26 -3 -36 4 -32 7 4 9 -1
7 -14 -2 -11 0 -20 6 -20 5 0 27 -11 49 -25 47 -30 60 -31 53 -6 -6 22 12 37
23 20 5 -8 3 -9 -6 -4 -10 6 -12 3 -8 -13 4 -12 2 -25 -3 -28 -5 -3 -7 -10 -3
-15 3 -5 -20 2 -50 15 l-56 25 0 -25 c0 -14 -4 -22 -10 -19 -17 10 -11 -16 18
-92 29 -73 50 -108 39 -65 -6 26 10 82 24 82 5 0 4 -12 -4 -26 -13 -25 -8
-127 8 -142 3 -3 22 -5 41 -4 21 2 33 -1 30 -7 -3 -5 -1 -11 6 -13 16 -6 2
-38 -16 -38 -9 0 -13 6 -10 14 3 7 -2 16 -10 19 -18 7 -14 -26 6 -51 11 -13
10 -15 -3 -10 -9 4 -16 1 -16 -7 0 -10 5 -11 19 -4 10 6 16 14 14 18 -3 4 8 8
23 7 22 -1 27 -4 19 -13 -6 -7 -14 -10 -19 -7 -14 8 -9 -8 9 -37 9 -14 27 -41
39 -60 13 -19 23 -45 23 -58 0 -20 -4 -23 -25 -19 -14 3 -25 1 -25 -3 0 -15
-19 -10 -40 11 -12 12 -18 25 -15 30 4 6 1 10 -6 10 -10 0 -10 3 -1 12 7 7 12
17 12 22 0 6 -5 4 -10 -4 -9 -13 -13 -12 -26 5 -12 16 -14 37 -11 98 3 45 1
77 -5 77 -5 0 -7 -4 -4 -9 3 -5 -1 -11 -9 -14 -11 -5 -13 1 -10 24 2 17 0 40
-6 52 -6 15 -8 -10 -6 -81 1 -57 0 -95 -4 -85 -4 10 -8 57 -8 105 -1 75 -4 92
-25 122 -13 19 -25 33 -27 31 -2 -2 -4 6 -5 18 0 12 -6 50 -12 84 -9 54 -8
130 3 188 2 11 4 22 4 25 1 3 6 -2 11 -10 6 -8 7 -32 4 -54z m731 -66 c3 0 3
6 -1 13 -5 6 8 -1 28 -18 19 -16 33 -33 31 -38 -3 -4 -12 1 -21 11 -22 24 -4
-7 21 -35 11 -12 17 -29 13 -38 -4 -11 -2 -14 6 -9 8 5 9 2 5 -10 -4 -10 -10
-29 -13 -42 -6 -23 -34 -35 -34 -14 0 6 -6 10 -13 10 -8 0 -24 11 -37 25 -13
14 -29 25 -36 25 -7 0 -15 6 -17 13 -4 10 -6 10 -6 0 -1 -7 8 -22 18 -32 19
-19 18 -19 -11 -23 -29 -5 -30 -4 -25 27 3 18 1 37 -5 43 -14 14 45 10 63 -4
77 -59 89 -66 89 -50 0 9 -10 20 -22 25 -13 5 -34 20 -48 33 -13 12 -28 22
-33 20 -5 -1 -6 2 -3 7 4 5 -2 14 -11 20 -10 6 -14 11 -9 11 5 0 3 6 -3 14 -9
11 -9 16 0 22 7 4 9 3 6 -3 -4 -5 7 -22 22 -37 29 -27 29 -28 40 -8 9 17 6 24
-17 42 -19 15 -21 18 -5 11 12 -6 24 -11 28 -11z m-189 -407 c-3 -7 -1 -13 4
-13 6 0 11 7 11 15 3 28 4 33 11 41 4 4 10 -1 14 -10 5 -14 15 -16 50 -10 36
5 44 3 44 -9 0 -9 -13 -18 -30 -22 -16 -4 -30 -11 -30 -16 0 -12 7 -11 33 2
33 17 54 43 49 58 -3 9 0 11 7 6 7 -4 11 -14 9 -23 -2 -10 3 -22 12 -29 13
-10 11 -13 -10 -21 -28 -12 -194 -60 -225 -66 -11 -2 -27 -7 -36 -10 -10 -5
-25 6 -47 33 -18 22 -32 42 -32 44 0 2 25 2 57 -1 48 -4 55 -2 50 11 -3 8 1
21 8 27 8 7 12 16 9 21 -3 5 -2 14 2 21 10 15 47 -30 40 -49z m-424 -185 c9
-13 33 -40 54 -61 l39 -39 -25 -16 c-14 -10 -47 -35 -75 -58 -28 -22 -63 -49
-78 -58 l-27 -18 0 38 c0 22 5 57 11 79 6 22 11 46 11 53 1 6 6 12 11 12 5 0
7 7 3 15 -3 8 1 18 8 22 7 5 18 18 25 31 6 12 16 22 20 22 5 0 15 -10 23 -22z
m-1246 -50 c8 -39 49 -100 98 -147 20 -19 36 -42 36 -50 0 -13 2 -13 13 1 16
21 72 39 84 27 5 -5 47 -11 94 -14 53 -2 77 -1 64 5 -15 7 -9 9 27 9 26 1 49
-3 53 -8 6 -11 -33 -51 -48 -51 -6 0 17 -14 50 -30 118 -59 178 -165 171 -300
-5 -87 -27 -136 -85 -193 -57 -58 -126 -89 -207 -95 -54 -4 -80 -12 -123 -38
-87 -52 -146 -68 -248 -68 -68 0 -103 6 -146 22 -55 22 -98 56 -86 68 3 4 46
9 96 13 82 6 88 5 80 -11 -5 -9 -9 -28 -9 -42 0 -15 -7 -26 -17 -29 -10 -3 2
-5 27 -6 48 -1 327 87 313 99 -4 3 -28 15 -53 26 -24 10 -59 35 -77 54 -41 44
-83 125 -83 162 l0 28 -107 1 c-117 1 -101 16 20 18 l67 1 0 33 c0 17 8 45 18
61 17 29 17 30 -5 52 -13 13 -23 29 -23 37 0 7 -15 20 -32 29 -18 8 -54 31
-80 51 -25 19 -48 34 -50 32 -2 -2 -4 4 -5 13 0 9 -7 32 -14 50 -16 38 -8 56
39 88 29 20 30 22 12 27 -11 3 -18 2 -15 -3 3 -4 -19 -20 -48 -35 -94 -50
-170 -109 -166 -131 4 -22 -3 -41 -25 -68 l-24 -29 1 26 c1 14 6 25 11 24 5
-1 11 4 14 12 3 9 0 11 -8 6 -9 -5 -11 -4 -6 4 4 6 11 9 16 6 5 -3 11 -1 15 5
3 5 0 10 -7 10 -25 0 96 109 153 137 32 15 58 33 58 39 1 6 -12 17 -29 24 -51
21 -32 40 40 40 29 0 42 -5 50 -20 14 -26 65 -27 79 -2 6 10 7 28 4 40 -3 12
-1 22 5 22 6 0 14 -15 18 -32z"/>
<path d="M837 6080 c-20 -5 -60 -21 -87 -35 -134 -68 -221 -236 -159 -306 l22
-24 -6 23 c-3 14 -1 22 8 22 16 0 26 -25 18 -47 -5 -14 -1 -15 25 -10 22 4 36
2 47 -10 13 -13 44 -17 141 -21 110 -4 124 -3 124 12 0 18 11 21 26 6 7 -7 21
-5 44 6 30 15 34 16 45 1 10 -14 12 -14 23 1 7 9 10 11 7 5 -7 -16 -4 -16 29
-4 17 7 26 7 30 -2 3 -9 5 -9 5 1 1 6 11 12 24 12 17 0 19 2 7 10 -15 9 -16 9
35 25 8 2 15 16 15 30 0 15 4 24 9 21 24 -15 19 48 -8 105 -12 23 -11 23 4 4
8 -10 21 -34 27 -52 7 -19 19 -33 28 -33 25 0 40 -21 40 -57 0 -21 -6 -36 -15
-40 -13 -5 -12 -8 5 -20 17 -12 27 -13 47 -4 14 6 34 9 45 5 12 -3 18 -2 15 3
-4 6 16 10 50 9 54 -1 56 0 57 26 1 21 -1 24 -11 16 -7 -6 -13 -7 -13 -3 0 4
-6 3 -12 -2 -7 -5 -24 -10 -38 -11 -17 -1 -21 1 -11 7 7 5 10 14 6 21 -6 9 -3
9 15 0 25 -13 42 -4 20 10 -12 8 -9 10 13 11 15 1 33 2 40 3 17 1 21 62 6 98
-17 41 -82 93 -134 108 -55 15 -138 9 -186 -14 l-37 -17 -66 45 c-36 25 -83
50 -103 56 -52 16 -170 21 -216 10z m252 -76 c93 -47 141 -142 104 -207 -57
-98 -286 -55 -349 65 -19 36 -18 88 2 117 40 56 155 68 243 25z m365 -48 c42
-17 76 -61 76 -97 0 -29 -21 -52 -28 -31 -2 7 -8 9 -14 6 -6 -4 -5 -10 3 -15
18 -11 11 -15 -38 -23 -34 -5 -43 -3 -43 8 0 8 3 16 8 19 4 2 1 2 -5 1 -8 -2
-13 6 -13 20 0 14 -2 31 -5 38 -7 18 60 24 71 7 4 -8 3 -9 -4 -5 -7 4 -12 2
-12 -3 0 -14 11 -13 33 3 17 13 24 32 8 22 -5 -3 -11 1 -15 9 -3 8 -14 15 -25
15 -29 0 -71 -21 -71 -36 0 -6 -7 -14 -15 -18 -25 -9 -18 -45 11 -57 15 -5 24
-12 21 -15 -11 -11 -67 27 -82 57 -19 36 -13 61 22 89 30 23 70 26 117 6z"/>
<path d="M4524 5043 c-13 -43 -21 -48 -73 -47 -31 1 -48 -2 -45 -8 3 -5 -2 -9
-12 -8 -53 6 -64 1 -64 -29 0 -26 4 -30 48 -40 26 -6 66 -12 90 -14 39 -4 42
-2 36 17 -7 23 -24 37 -35 30 -4 -2 -9 3 -13 11 -8 23 13 29 58 14 52 -16 51
-15 35 -36 -12 -15 -12 -16 4 -10 10 4 26 7 35 7 12 0 8 8 -13 30 -19 20 -35
28 -47 24 -10 -3 -18 -1 -18 4 0 17 12 21 37 11 37 -14 39 -4 7 26 -16 15 -23
24 -16 20 6 -3 12 -1 12 4 0 18 -20 12 -26 -6z"/>
<path d="M6202 4463 c-6 -2 -10 -8 -8 -12 3 -4 -5 -7 -17 -7 -15 1 -21 -4 -19
-14 2 -8 0 -12 -3 -8 -8 7 -65 -18 -65 -28 0 -3 5 -2 10 1 6 3 10 -1 10 -9 0
-10 -7 -13 -20 -11 -11 2 -18 0 -15 -6 4 -5 13 -9 21 -9 8 0 12 -5 8 -11 -4
-8 -9 -8 -17 0 -19 19 -38 12 -53 -21 -9 -18 -24 -49 -34 -68 -11 -19 -19 -48
-19 -65 0 -26 3 -23 24 25 14 32 24 46 25 35 0 -12 -5 -26 -11 -32 -8 -8 -8
-13 0 -17 6 -4 11 -14 11 -23 0 -9 8 -26 18 -37 16 -20 16 -20 -1 -7 -9 8 -21
11 -25 7 -8 -8 25 -36 43 -36 6 0 11 10 12 22 4 51 53 38 53 -14 0 -16 4 -27
8 -24 4 3 25 1 46 -4 31 -7 39 -5 49 11 15 24 47 25 54 0 3 -12 16 -21 33 -23
49 -7 180 11 227 32 38 17 44 23 38 42 -5 20 -5 21 5 5 6 -10 9 -31 5 -47 -4
-17 -3 -30 2 -30 4 0 9 14 10 32 1 17 8 35 15 40 7 4 9 8 4 8 -5 0 -2 7 5 17
8 9 13 18 12 20 -2 1 -3 6 -2 11 0 4 5 -2 10 -13 7 -16 8 -14 4 10 -4 17 -15
46 -25 67 -10 20 -16 39 -13 42 4 3 2 6 -4 6 -5 0 -15 -17 -21 -37 -14 -47
-48 -103 -62 -103 -6 0 -20 20 -32 45 -12 25 -26 45 -30 45 -4 0 -8 6 -8 14 0
22 -9 24 -80 16 -57 -6 -68 -5 -87 13 -12 11 -20 23 -18 27 6 10 -14 26 -45
34 -18 6 -21 5 -10 -3 8 -5 11 -13 8 -17 -4 -3 -14 0 -22 9 -14 13 -12 17 22
30 29 12 33 17 20 22 -10 4 -15 11 -12 16 3 5 0 9 -6 9 -7 0 -10 -7 -7 -15 4
-8 1 -17 -5 -21 -7 -5 -9 4 -4 30 4 20 6 36 4 35 -2 0 -9 -3 -16 -6z"/>
<path d="M5118 4054 c-4 -3 -17 -7 -30 -9 -75 -12 -225 -83 -265 -126 -15 -15
-31 -25 -36 -22 -6 3 -7 1 -4 -4 7 -10 -30 -50 -41 -45 -3 1 -7 -10 -9 -25 -2
-16 -26 -72 -53 -125 -27 -54 -46 -98 -41 -98 5 0 12 6 14 13 3 6 6 -3 6 -21
1 -50 24 -93 71 -136 86 -77 230 -119 455 -131 106 -5 133 -3 232 19 104 23
189 54 153 56 -10 0 -6 9 13 26 25 21 27 27 15 42 -7 9 -19 21 -26 25 -17 11
-74 136 -67 147 7 11 -26 80 -36 75 -4 -3 -10 10 -13 29 -7 36 -21 46 -66 46
-30 0 -95 24 -104 39 -3 5 -23 7 -44 4 -36 -5 -41 -2 -72 36 -18 23 -30 45
-26 48 3 4 20 6 36 6 20 0 26 3 18 9 -7 4 -30 7 -50 6 -20 -1 -43 4 -51 11 -9
7 -26 9 -44 5 -25 -7 -27 -6 -14 9 7 10 21 17 31 17 20 0 34 36 16 45 -6 3 1
3 17 1 15 -2 27 0 27 3 0 4 12 12 28 18 l27 11 -31 1 c-17 1 -33 -2 -36 -5z"/>
<path d="M6029 4044 c-12 -15 -8 -21 27 -53 86 -76 247 -129 349 -116 68 9
135 27 135 38 0 4 5 5 11 2 6 -4 5 3 -3 14 -11 19 -10 28 12 69 l26 48 -55
-33 c-96 -58 -188 -73 -300 -49 -40 8 -80 21 -88 28 -8 7 -22 13 -31 14 -17 3
-32 22 -32 42 0 18 -35 15 -51 -4z"/>
<path d="M6680 3931 c-24 -7 -24 -8 19 -35 24 -15 57 -33 73 -38 16 -6 27 -13
24 -15 -6 -7 -109 41 -146 67 -17 12 -35 18 -41 15 -12 -8 -3 -55 13 -70 8 -7
9 -6 4 2 -4 7 -2 21 3 30 6 10 11 13 11 7 0 -5 7 -19 16 -30 8 -10 13 -13 9
-6 -3 6 -2 12 3 12 5 0 12 -8 15 -17 2 -10 8 -27 13 -38 7 -18 6 -18 -9 -6 -9
7 -14 17 -11 22 6 11 13 10 -68 15 -60 5 -71 3 -105 -20 -21 -14 -43 -26 -50
-26 -7 0 -13 -7 -13 -15 0 -8 6 -12 13 -10 7 3 79 -8 161 -25 82 -16 152 -28
154 -25 3 3 1 5 -5 5 -17 0 -103 61 -114 81 -13 26 -5 24 27 -6 15 -14 32 -25
38 -25 6 0 5 4 -2 9 -11 7 -11 9 1 14 9 3 18 0 21 -8 3 -8 15 -19 27 -25 17
-10 20 -9 13 2 -10 17 -47 44 -56 40 -14 -4 -8 15 9 29 10 8 14 9 10 2 -4 -6
-2 -15 4 -19 8 -4 9 -3 5 4 -9 15 -5 15 67 -2 31 -8 55 -10 51 -5 -3 5 7 4 21
-1 15 -6 53 -10 86 -10 46 0 59 3 59 15 0 8 4 15 8 15 4 0 18 20 29 44 l22 44
-22 6 c-37 10 -64 7 -77 -9 -7 -8 -20 -15 -29 -15 -13 1 -13 3 3 15 18 13 5
15 -120 14 -76 -1 -150 -4 -164 -8z"/>
<path d="M5758 3744 c-4 -4 17 -67 38 -112 0 -1 45 -8 98 -16 95 -13 97 -13
108 8 6 12 25 38 41 58 17 21 28 40 26 42 -4 3 -256 26 -290 26 -9 0 -18 -3
-21 -6z"/>
<path d="M4714 3295 c-28 -12 -54 -50 -54 -80 0 -24 134 -157 194 -193 30 -19
81 -45 113 -58 l58 -24 -42 0 c-23 0 -48 -3 -57 -6 -10 -4 -16 -1 -16 8 0 20
-61 47 -93 41 -17 -4 -27 -1 -27 7 0 7 7 10 15 6 29 -11 14 9 -37 49 -89 70
-89 70 -81 49 4 -11 15 -25 25 -32 10 -7 16 -18 13 -23 -4 -5 0 -9 8 -9 8 0
17 -9 20 -20 4 -17 0 -20 -28 -20 -19 0 -36 -4 -39 -9 -3 -5 -16 -7 -28 -3
-14 3 -19 2 -14 -6 10 -17 -3 -15 -20 3 -13 12 -47 15 -183 15 -92 0 -171 -3
-174 -6 -4 -4 -46 -6 -94 -5 -48 1 -93 -2 -98 -6 -6 -5 -19 -37 -28 -71 -19
-68 -59 -155 -85 -185 -24 -28 0 -38 78 -35 85 5 153 37 186 90 16 24 29 36
37 31 6 -4 18 -8 27 -9 8 -1 35 -5 59 -9 39 -7 44 -6 38 8 -4 10 -1 17 6 17 7
0 4 5 -5 11 -21 12 -24 30 -5 27 6 -2 11 3 9 10 -1 8 2 11 8 7 6 -3 8 -10 6
-14 -7 -11 37 -11 51 0 6 6 25 9 40 8 15 -2 34 1 42 5 8 5 16 4 21 -4 5 -8 10
-9 14 -2 4 6 14 8 22 5 9 -3 20 0 25 8 7 11 9 9 9 -7 0 -15 -8 -24 -25 -28
-14 -4 -25 -11 -25 -17 0 -18 46 -1 77 27 22 21 25 27 13 34 -12 8 -11 10 5
10 17 0 17 2 5 10 -8 5 -10 10 -5 10 6 0 16 -5 22 -11 7 -7 15 -6 26 5 9 9 24
16 34 16 15 0 16 -2 3 -10 -13 -8 -12 -10 3 -10 9 0 17 7 17 15 0 7 -8 19 -17
24 -10 6 -12 11 -5 11 6 0 12 12 12 28 1 23 2 24 11 10 5 -10 14 -18 20 -18
19 0 51 -38 44 -51 -6 -8 -4 -10 6 -4 15 10 52 15 44 7 -3 -3 0 -11 6 -18 7
-9 19 -10 42 -3 17 5 70 6 116 2 l86 -6 -76 74 c-42 41 -113 124 -158 185
-102 141 -136 165 -197 139z"/>
<path d="M3630 2933 c-14 -2 -90 -13 -170 -24 -132 -19 -369 -62 -412 -75 -29
-9 -22 -22 45 -88 97 -97 197 -136 349 -136 l86 0 21 34 c12 19 27 36 35 39 7
3 34 47 61 97 35 68 44 94 35 100 -8 5 -10 18 -6 34 7 27 6 27 -44 19z"/>
<path d="M2980 2819 c-159 -47 -216 -65 -280 -92 -41 -17 -69 -32 -62 -35 23
-7 12 -40 -23 -71 -20 -17 -41 -31 -47 -31 -6 0 -1 -11 11 -24 64 -68 381
-116 765 -116 144 0 177 3 211 19 l40 18 -51 -5 c-51 -4 -190 14 -198 26 -2 4
9 7 25 8 16 1 33 4 36 8 14 14 -53 55 -99 61 -60 9 -153 54 -198 96 -19 18
-39 32 -43 31 -5 -1 -6 1 -3 6 3 5 -3 18 -14 29 -10 12 -16 24 -13 27 4 3 1 6
-6 6 -7 0 -10 3 -7 8 10 17 -19 39 -44 31z"/>
<path d="M4314 2657 c-6 -29 -18 -38 -136 -96 -71 -35 -125 -67 -121 -72 10
-10 285 20 298 32 5 6 5 9 -3 9 -12 0 -47 59 -39 67 3 2 8 -5 12 -16 10 -32
69 -64 104 -56 22 5 28 11 24 23 -8 24 -33 42 -49 35 -8 -3 -18 5 -25 21 -7
14 -15 23 -19 21 -4 -2 -7 2 -7 10 0 8 4 12 9 9 4 -3 8 4 8 15 0 12 -3 21 -7
22 -5 0 -16 2 -25 4 -13 2 -19 -6 -24 -28z"/>
<path d="M3780 2530 c0 -5 -6 -7 -13 -4 -19 7 -90 -21 -134 -51 l-38 -27 52 6
c28 4 68 13 87 21 45 19 70 19 31 0 -28 -14 -23 -14 65 -9 52 4 109 6 125 5
l30 -1 -25 20 c-14 11 -31 20 -39 20 -12 0 -11 3 2 13 15 10 8 12 -44 15 -34
2 -59 -1 -55 -6 3 -5 -1 -9 -9 -9 -8 0 -12 4 -9 9 3 4 -2 8 -10 8 -9 0 -16 -4
-16 -10z"/>
<path d="M2699 1702 c-80 -51 -129 -126 -129 -198 0 -35 24 -99 40 -109 13 -8
43 106 41 155 -1 37 4 54 29 88 16 23 34 42 38 42 5 0 14 11 20 25 6 14 10 25
9 25 -2 0 -23 -13 -48 -28z"/>
</g>
</svg>
